<svg width="41" height="41" viewBox="0 0 41 41" fill="none" xmlns="http://www.w3.org/2000/svg">
<ellipse cx="19.344" cy="18.6871" rx="19.344" ry="18.6871" fill="#E9E1D5"/>
<path d="M13.1704 26.8378C14.8424 24.1352 19.39 20.2477 21.2304 18.7309C21.6624 18.3749 22.298 18.4585 22.6418 18.9003C26.2887 23.5875 29.0821 26.152 34.0757 29.7647C34.5582 30.1137 34.6389 30.8005 34.2346 31.2377C32.4585 33.1586 27.9586 37.8641 25.5176 38.9645C22.4308 40.3561 20.0835 40.3341 16.6688 38.9645C15.0674 38.1531 14.295 37.4765 13.2442 35.8956C13.1952 35.8218 13.1565 35.7409 13.1288 35.6567C12.1772 32.7612 11.0831 30.2117 13.1704 26.8378Z" fill="#A89282" stroke="#A89282" stroke-width="2" stroke-linecap="round"/>
<path d="M35.807 18.2895C38.0592 16.3959 38.903 15.2878 38.688 13.1207" stroke="#A89282" stroke-width="3" stroke-linecap="round"/>
<path d="M36.2958 28.4577C33.8265 27.6625 25.1834 20.9033 23.7428 16.7286C22.3994 12.8353 26.2462 13.0914 26.7711 13.1437C26.8111 13.1477 26.8501 13.1554 26.889 13.1655C34.2235 15.0585 37.2165 17.3595 39.8933 25.5436C39.9624 25.7546 39.9595 25.9865 39.8661 26.1879C39.4858 27.0076 38.2957 29.1017 36.2958 28.4577Z" fill="#A89282" stroke="#A89282" stroke-width="2" stroke-linecap="round"/>
<ellipse cx="2.46502" cy="0.995899" rx="2.46502" ry="0.995899" transform="matrix(0.974562 0.224117 -0.239262 0.970955 26.8174 15.1087)" fill="#EADFCF"/>
<path d="M21.4019 22.4643C18.3254 24.5902 17.3509 26.321 16.463 30.0186" stroke="#EADFCF" stroke-width="3" stroke-linecap="round"/>
</svg>
